<?xml version="1.0" encoding="UTF-8"?>
<svg width="22px" height="22px" viewBox="0 0 22 22" version="1.1" xmlns="http://www.w3.org/2000/svg" xmlns:xlink="http://www.w3.org/1999/xlink">
    <title>74E5C419-B9E2-4C1B-9738-B7EAD7164E08</title>
    <g id="Dealership-Registration---final" stroke="none" stroke-width="1" fill="none" fill-rule="evenodd">
        <g id="08_Dealer-Registration_Contacts" transform="translate(-206.000000, -128.000000)">
            <g id="Group-4" transform="translate(182.000000, 128.000000)">
                <g id="OtherComponents/StepsProgress/Done-Copy-3" transform="translate(24.000000, 0.000000)">
                    <rect id="Rectangle" x="0" y="0" width="22" height="22"></rect>
                    <g id="Group-2">
                        <circle id="Oval-Copy" fill="#E6D2F5" cx="11" cy="11" r="11"></circle>
                        <circle id="Oval-Copy-2" fill="#276552" cx="11" cy="11" r="7.7"></circle>
                        <path d="M14.5484594,7.7 C14.3227447,7.69989441 14.1063102,7.79192467 13.946966,7.95574733 L10.0070126,11.9932776 L8.05456513,9.99203786 C7.72272983,9.65061882 7.18368866,9.64952678 6.85054727,9.9896072 C6.51740587,10.3297052 6.51635755,10.8821686 6.84817566,11.2236053 C6.8489662,11.2244155 6.84975673,11.2252433 6.85054727,11.2260359 L9.40500366,13.8442747 C9.73721704,14.185042 10.276052,14.185271 10.6085403,13.8447855 C10.608695,13.8446094 10.6088497,13.8444332 10.6090215,13.8442747 L15.1504683,9.18974538 C15.4830426,8.84908371 15.4831972,8.29660274 15.150812,7.95574733 C14.9910897,7.79195989 14.7743803,7.7 14.5484594,7.7" id="Fill-1" fill="#FFFFFF"></path>
                    </g>
                </g>
            </g>
        </g>
    </g>
</svg>