<?xml version="1.0" encoding="UTF-8"?>
<svg width="22px" height="22px" viewBox="0 0 22 22" version="1.1" xmlns="http://www.w3.org/2000/svg" xmlns:xlink="http://www.w3.org/1999/xlink">
    <title>34ACF684-2923-45BC-8CE7-2B217B18FCAA</title>
    <g id="Dealership-Registration---final" stroke="none" stroke-width="1" fill="none" fill-rule="evenodd">
        <g id="08_Dealer-Registration_Contacts" transform="translate(-1170.000000, -426.000000)">
            <g id="Group-8" transform="translate(1170.000000, 426.000000)">
                <rect id="Rectangle-Copy" x="0" y="0" width="22" height="22"></rect>
                <path d="M13.031583,5.82743404e-05 C13.5921045,-0.00415452503 14.1403876,0.220221274 14.5369137,0.616863739 C14.8893814,0.969434818 15.106954,1.44261754 15.1488032,1.93781283 L15.1561799,2.12435032 L15.1561799,2.65279824 L17.6552736,2.65279824 C18.6826924,2.65279824 19.5577423,3.42278732 19.6911416,4.44412634 C19.8130842,5.38209075 19.275676,6.27630922 18.4170829,6.62014908 L18.2623013,6.67501031 L18.2623013,19.1621979 C18.2623013,19.9229912 17.9789809,20.6574235 17.485159,21.1779018 C17.040124,21.6516212 16.4276953,21.9424393 15.7825785,21.9923215 L15.5881975,22 L5.95346914,22 C5.23813109,21.9987739 4.54665805,21.6989931 4.05528384,21.1779018 C3.60691113,20.7047397 3.33250663,20.0547562 3.28632047,19.3688925 L3.27936542,19.1621979 L3.27936542,6.67501031 C2.33149661,6.38136002 1.72140934,5.43726513 1.8505251,4.44412634 C1.97632359,3.47654201 2.76830797,2.73454599 3.72542966,2.65912143 L3.88639308,2.65279824 L6.38548681,2.65279824 L6.38548681,2.12373727 C6.38242719,1.56279778 6.60761488,1.0135062 7.00414101,0.616863739 C7.35715262,0.264292659 7.82958743,0.0473491285 8.32431672,0.00688153174 L8.51069555,5.82743404e-05 L13.031583,5.82743404e-05 Z M17.0274405,6.746737 L4.5136142,6.746737 L4.5136142,19.1621979 C4.5136142,20.0098398 5.07744652,20.6841384 5.82055047,20.7564443 L5.95346914,20.7628679 L15.5881975,20.7628679 C16.3504837,20.7628679 16.9566652,20.1356605 17.021666,19.3098951 L17.0274405,19.1621979 L17.0274405,6.746737 Z M13.7750083,7.89191185 C14.1158495,7.89191185 14.3924387,8.16962288 14.3924387,8.51109096 L14.3924387,8.51109096 L14.3924387,18.1518937 C14.3924387,18.4933618 14.1158495,18.7704598 13.7750083,18.7704598 C13.4341672,18.7704598 13.157578,18.4933618 13.157578,18.1518937 L13.157578,18.1518937 L13.157578,8.51109096 C13.157578,8.16962288 13.4341672,7.89191185 13.7750083,7.89191185 Z M7.76629117,7.89191185 C8.1071323,7.89191185 8.38372152,8.16962288 8.38372152,8.51109096 L8.38372152,8.51109096 L8.38372152,18.1518937 C8.38372152,18.4933618 8.1071323,18.7704598 7.76629117,18.7704598 C7.42545003,18.7704598 7.14886081,18.4933618 7.14886081,18.1518937 L7.14886081,18.1518937 L7.14886081,8.51109096 C7.14886081,8.16962288 7.42545003,7.89191185 7.76629117,7.89191185 Z M10.7709557,7.89191185 C11.1111849,7.89191185 11.3883861,8.16962288 11.3883861,8.51109096 L11.3883861,8.51109096 L11.3883861,18.1518937 C11.3883861,18.4933618 11.1111849,18.7704598 10.7709557,18.7704598 C10.4301146,18.7704598 10.1529134,18.4933618 10.1529134,18.1518937 L10.1529134,18.1518937 L10.1529134,8.51109096 C10.1529134,8.16962288 10.4301146,7.89191185 10.7709557,7.89191185 Z M17.6552736,3.88993038 L3.88639308,3.88993038 C3.44030118,3.88993038 3.07743081,4.25285517 3.07743081,4.69976762 C3.07743081,5.11230219 3.38662213,5.45327331 3.78505339,5.50328938 L3.88639308,5.50960487 L17.6552736,5.50960487 C18.1007536,5.50960487 18.4636239,5.14668008 18.4636239,4.69976762 C18.4636239,4.25285517 18.1007536,3.88993038 17.6552736,3.88993038 Z M13.0334188,1.23726895 L8.50947171,1.23726895 C8.27388134,1.23420371 8.04318635,1.32554796 7.87674328,1.49168414 C7.73855066,1.62962008 7.65007678,1.81225748 7.62619478,2.00553809 L7.6197356,2.12251118 L7.6197356,2.65279824 L13.9213191,2.65279824 L13.9213191,2.12373727 C13.9243788,1.8871005 13.8307545,1.65720727 13.6643115,1.49168414 C13.4984803,1.32554796 13.2677853,1.23359066 13.0334188,1.23726895 Z" id="Combined-Shape" fill="#0059FF"></path>
            </g>
        </g>
    </g>
</svg>