<?xml version="1.0" encoding="UTF-8"?>
<svg width="18px" height="18px" viewBox="0 0 18 18" version="1.1" xmlns="http://www.w3.org/2000/svg" xmlns:xlink="http://www.w3.org/1999/xlink">
    <title>862739BA-DAFF-40B7-A0D4-A1759F92BD1E</title>
    <g id="Feeds" stroke="none" stroke-width="1" fill="none" fill-rule="evenodd">
        <g id="01_Feeds" transform="translate(-1212.000000, -457.000000)" fill="#0059FF">
            <g id="Group-4" transform="translate(150.000000, 396.000000)">
                <g id="Group" transform="translate(1062.000000, 61.000000)">
                    <path d="M16.8340419,1.16509509 C17.585778,1.91305738 18,2.91034042 18,3.97283043 C18,4.9594283 17.6428392,5.88980179 16.9899342,6.61961018 L16.8340419,6.78440147 L6.53218829,17.0832667 C6.43630357,17.182995 6.30206497,17.2366949 6.16782637,17.2366949 C6.0604355,17.2366949 5.95304462,17.1998721 5.86529093,17.136046 L5.80346446,17.0832667 L1.65357407,12.933035 L1.12045506,16.8761387 L3.8512517,16.5079111 C4.13507045,16.4695541 4.39587687,16.6690107 4.43423076,16.9528528 C4.4683231,17.2051569 4.31452875,17.4392769 4.08059636,17.5151281 L3.98932569,17.5358798 L0.58350067,17.9961643 C0.560488339,18 0.537476008,18 0.514463676,18 C0.380225078,18 0.245986479,17.9424644 0.150101766,17.8465718 C0.0611207517,17.7575835 0.00650481895,17.6366821 -7.93241774e-13,17.5093981 L0.00435700137,17.4131373 L0.76759932,11.7593479 C0.779105485,11.6758926 0.810028305,11.596774 0.858749725,11.5284487 L0.913344084,11.4639604 L11.2151977,1.16509509 C12.7646947,-0.388365031 15.2845449,-0.388365031 16.8340419,1.16509509 Z M13.8807927,4.89339939 L4.48025542,14.2947099 L6.17166176,15.9862554 L15.5721991,6.58494486 L13.8807927,4.89339939 Z M11.4146379,2.43087742 L2.01410059,11.8321879 L3.74386082,13.5620905 L13.1443981,4.16077993 L11.4146379,2.43087742 Z M14.0265375,1.03468116 C13.4128753,1.03468116 12.826487,1.2225833 12.3347155,1.56875427 L12.1548679,1.70592936 L16.2932521,5.84465399 C16.726651,5.31916254 16.9644451,4.66709286 16.9644451,3.97283043 C16.9644451,3.18651111 16.6614494,2.44622023 16.1053181,1.89387886 C15.5491867,1.34153748 14.8127921,1.03468116 14.0265375,1.03468116 Z" id="Combined-Shape"></path>
                </g>
            </g>
        </g>
    </g>
</svg>