<?xml version="1.0" encoding="UTF-8"?>
<svg width="16px" height="16px" viewBox="0 0 16 16" version="1.1" xmlns="http://www.w3.org/2000/svg" xmlns:xlink="http://www.w3.org/1999/xlink">
    <title>86C9ED33-A3AF-4CE2-A7C7-D2051A2CBA64</title>
    <g id="User-Management" stroke="none" stroke-width="1" fill="none" fill-rule="evenodd">
        <g id="01_User-Management" transform="translate(-1259.000000, -299.000000)">
            <g id="Search/Default" transform="translate(930.000000, 289.000000)">
                <g id="Group-2" transform="translate(329.000000, 9.999680)">
                    <rect id="Rectangle" x="0" y="0" width="16" height="16"></rect>
                    <path d="M6.2392,11.2259467 C3.4888,11.2259467 1.2512,8.99228185 1.2512,6.24641864 C1.2512,3.50055543 3.4888,1.26609024 6.2392,1.26609024 C8.9896,1.26609024 11.2272,3.50055543 11.2272,6.24641864 C11.2272,8.99228185 8.9896,11.2259467 6.2392,11.2259467 M15.8136,14.9281803 L11.08,10.1967482 L11.3,9.88302675 C12.0608,8.82421677 12.4792,7.53331693 12.4792,6.24641864 C12.4792,2.8018849 9.68,0 6.2392,0 C2.7984,0 0,2.8018849 0,6.24641864 C0,9.69175268 2.7984,12.4944379 6.2392,12.4944379 C7.5648,12.4944379 8.8208,12.0862799 9.8728,11.3155814 L10.1864,11.0850922 L14.9344,15.8309298 C15.1616,16.0574175 15.5824,16.0566172 15.816,15.8269282 C15.9344,15.7084824 16,15.5492207 16,15.3779544 C16,15.2082887 15.9336,15.0482267 15.8136,14.9281803" id="Fill-1" fill="#000000"></path>
                </g>
            </g>
        </g>
    </g>
</svg>